<?xml version="1.0" encoding="UTF-8" standalone="no"?>
<!-- Uploaded to: SVG Repo, www.svgrepo.com, Generator: SVG Repo Mixer Tools -->
<svg width="800px" height="800px" viewBox="0 0 64 64" version="1.1" xmlns="http://www.w3.org/2000/svg" xmlns:xlink="http://www.w3.org/1999/xlink">
    
    <title>con-circular-saw</title>
    <desc>Created with Sketch.</desc>
    <defs>

</defs>
    <g id="General" stroke="none" stroke-width="1" fill="none" fill-rule="evenodd">
        <g id="SLICES-64px" transform="translate(-810.000000, -300.000000)">

</g>
        <g id="ICONS" transform="translate(-805.000000, -295.000000)">
            <g id="con-circular-saw" transform="translate(810.000000, 300.000000)">
                <path d="M27,46 C16.506,46 8,37.493 8,27 C8,16.506 16.506,8 27,8 C37.494,8 46,16.506 46,27 C46,37.493 37.494,46 27,46 M50.325,30.756 L54,28 L54,20 L51.178,22.116 C51.178,22.116 49.187,23.428 48.705,21.469 C48.404,20.25 49.078,18.59 49.078,18.59 L50.883,14.366 L46.883,7.437 L46.882,7.437 L45.496,10.682 C45.496,10.682 44.428,12.812 43.031,11.357 C42.161,10.451 41.915,8.678 41.915,8.678 L41.366,4.117 L34.437,0.117 L34.859,3.619 C34.859,3.619 35,6 33.062,5.437 C31.857,5.088 30.756,3.674 30.756,3.674 L28,0 L20,0 L22.116,2.822 C22.116,2.822 23.429,4.812 21.469,5.295 C20.251,5.594 18.59,4.922 18.59,4.922 L14.366,3.117 L7.438,7.117 L10.682,8.502 C10.682,8.502 12.814,9.57 11.357,10.969 C10.453,11.836 8.678,12.084 8.678,12.084 L4.117,12.633 L0.118,19.561 L0.117,19.563 L3.619,19.141 C3.619,19.141 6,19 5.438,20.938 C5.088,22.143 3.675,23.244 3.675,23.244 L0,26 L0,34 L2.822,31.884 C2.822,31.884 4.813,30.571 5.295,32.531 C5.595,33.75 4.922,35.41 4.922,35.41 L3.117,39.634 L7.117,46.562 L8.503,43.318 C8.503,43.318 9.571,41.186 10.969,42.643 C11.837,43.547 12.085,45.322 12.085,45.322 L12.634,49.883 L19.562,53.882 L19.563,53.883 L19.141,50.381 C19.141,50.381 19,48 20.938,48.563 C22.144,48.912 23.244,50.325 23.244,50.325 L26,54 L34,54 L34.001,54 L31.884,51.178 C31.884,51.178 30.572,49.186 32.531,48.705 C33.751,48.404 35.41,49.078 35.41,49.078 L39.634,50.883 L46.562,46.883 L46.563,46.881 L43.318,45.496 C43.318,45.496 41.188,44.428 42.643,43.031 C43.549,42.16 45.322,41.914 45.322,41.914 L49.883,41.365 L53.883,34.437 L50.381,34.859 C50.381,34.859 48,35 48.562,33.062 C48.912,31.855 50.325,30.756 50.325,30.756" id="Fill-178" fill="#5D94C7">

</path>
                <path d="M27,32 C24.238,32 22,29.762 22,27 C22,24.238 24.238,22 27,22 C29.762,22 32,24.238 32,27 C32,29.762 29.762,32 27,32 M27,8 C16.506,8 8,16.506 8,27 C8,37.493 16.506,46 27,46 C37.494,46 46,37.493 46,27 C46,16.506 37.494,8 27,8" id="Fill-179" fill="#7BBDEC">

</path>
                <path d="M46,27 C46,37.493 37.494,46 27,46 C16.506,46 8,37.493 8,27 C8,16.506 16.506,8 27,8 C37.494,8 46,16.506 46,27 Z" id="Stroke-180" stroke="#4682AF" stroke-width="2" stroke-linecap="round" stroke-linejoin="round">

</path>
                <path d="M53.8828,34.4375 L49.8828,41.3655 L45.3218,41.9145 C45.3218,41.9145 43.5488,42.1605 42.6428,43.0315 C41.1878,44.4275 43.3188,45.4965 43.3188,45.4965 L46.5638,46.8805 L46.5628,46.8825 L39.6338,50.8825 L35.4098,49.0785 C35.4098,49.0785 33.7508,48.4045 32.5308,48.7055 C30.5718,49.1855 31.8838,51.1775 31.8838,51.1775 L34.0008,53.9995 L33.9998,53.9995 L25.9998,53.9995 L23.2438,50.3255 C23.2438,50.3255 22.1438,48.9125 20.9378,48.5625 C18.9998,48.0005 19.1408,50.3805 19.1408,50.3805 L19.5628,53.8825 L19.5618,53.8815 L12.6338,49.8825 L12.0848,45.3225 C12.0848,45.3225 11.8368,43.5465 10.9688,42.6425 C9.5708,41.1855 8.5028,43.3185 8.5028,43.3185 L7.1168,46.5615 L3.1168,39.6335 L4.9218,35.4105 C4.9218,35.4105 5.5948,33.7505 5.2948,32.5315 C4.8138,30.5715 2.8218,31.8835 2.8218,31.8835 L-0.0002,34.0005 L-0.0002,25.9995 L3.6748,23.2445 C3.6748,23.2445 5.0878,22.1425 5.4378,20.9375 C5.9998,18.9995 3.6188,19.1405 3.6188,19.1405 L0.1168,19.5625 L0.1178,19.5605 L4.1168,12.6325 L8.6778,12.0835 C8.6778,12.0835 10.4528,11.8355 11.3578,10.9685 C12.8148,9.5705 10.6818,8.5015 10.6818,8.5015 L7.4388,7.1175 L14.3658,3.1175 L18.5898,4.9215 C18.5898,4.9215 20.2508,5.5935 21.4688,5.2945 C23.4288,4.8125 22.1158,2.8225 22.1158,2.8225 L19.9998,-0.0005 L27.9998,-0.0005 L30.7558,3.6735 C30.7558,3.6735 31.8578,5.0875 33.0628,5.4375 C34.9998,6.0005 34.8598,3.6195 34.8598,3.6195 L34.4378,0.1175 L41.3658,4.1175 L41.9148,8.6775 C41.9148,8.6775 42.1608,10.4515 43.0308,11.3575 C44.4278,12.8125 45.4958,10.6815 45.4958,10.6815 L46.8818,7.4365 L46.8828,7.4375 L50.8828,14.3665 L49.0778,18.5895 C49.0778,18.5895 48.4038,20.2495 48.7048,21.4685 C49.1868,23.4275 51.1778,22.1165 51.1778,22.1165 L53.9998,19.9995 L53.9998,28.0005 L50.3248,30.7555 C50.3248,30.7555 48.9118,31.8555 48.5628,33.0625 C47.9998,34.9995 50.3808,34.8595 50.3808,34.8595 L53.8828,34.4375 Z" id="Stroke-181" stroke="#317199" stroke-width="2" stroke-linecap="round" stroke-linejoin="round">

</path>
                <path d="M32,27 C32,29.762 29.762,32 27,32 C24.238,32 22,29.762 22,27 C22,24.238 24.238,22 27,22 C29.762,22 32,24.238 32,27 Z" id="Stroke-182" stroke="#4682AF" stroke-width="2" stroke-linecap="round" stroke-linejoin="round">

</path>
            </g>
        </g>
    </g>
</svg>