<svg xmlns="http://www.w3.org/2000/svg" viewBox="0 0 600 600"><path fill="#212B50" d="M505.01 459.43c-16.02-2.11-32.07-3.93-48.14-5.5 1.08-2.88.17-6.62-3.39-7.11-.47-.07-.95-.12-1.42-.19h-.05c-80.49-11.01-161.9-14.53-243.03-10.07-23.32 1.28-46.6 3.23-69.82 5.79-2.91.32-4.59 2.48-5 4.77-4.94.45-9.89.92-14.83 1.41-6.75.68-6.85 11.31 0 10.66 11.24-1.06 22.49-1.99 33.74-2.81-5.89.68-11.78 1.38-17.66 2.12-5.05.64-6.49 6.68-3.71 9.37-11.03 1.12-22.05 2.32-33.06 3.61-2.63.31-4.27 2.11-4.86 4.15-5.4 1.84-5.43 10.48 1.2 10.38 39.49-.64 78.99-1.27 118.48-1.91l-15.05.96-64.78 4.11c-6.8.43-6.89 10.98 0 10.66a4034.2 4034.2 0 0149.19-1.93c-13.65 1.18-27.29 2.43-40.93 3.78-6.71.66-6.94 11.08 0 10.66 40.35-2.42 80.76-3.79 121.17-4.12-17.01 2.09-33.97 4.55-50.88 7.38-6.34 1.06-4.12 9.96 1.42 10.47 26.19 2.43 52.43 4.36 78.69 5.8-11.61 1.1-23.22 2.21-34.82 3.31-6.06.58-7.15 8.29-1.42 10.47l15.16 5.77c4.87 1.85 7.64-3.63 5.91-7.44 32.29-3.07 64.57-6.13 96.86-9.2 6.71-.64 6.99-10.55 0-10.66-37.86-.6-75.69-2.25-113.46-4.9 40.84-5.16 81.93-8.12 123.11-8.88 6.88-.13 6.84-10.36 0-10.66-10.31-.45-20.62-.82-30.94-1.13 2.95-.09 5.9-.19 8.85-.28 20.71-.6 41.42-.99 62.13-1.2 6.87-.07 6.86-10.48 0-10.66-20.16-.54-40.32-.91-60.48-1.15 21.18-1.34 42.35-2.69 63.53-4.03.89-.06 1.66-.27 2.32-.59 9.14-.15 18.29-.29 27.43-.44 5.74-.09 7.57-9.63 1.42-10.47-.47-.06-.95-.12-1.42-.19s-.01 0-.02 0c-1.54-.21-3.08-.41-4.62-.61 17.72.26 35.44.64 53.16 1.17 7.06.21 6.58-9.79 0-10.66z"></path><path fill="#DB3F29" d="M509.52 259.78c-1.49-15.08-4.72-29.77-9.93-44.01-1.51-4.14-5.91-4.58-8.49-2.56-.44-1.29-.89-2.58-1.32-3.87-.13-.37-.28-.7-.45-1.01 1.1-1.8 1.17-4.22-.73-6.32-4.28-4.72-8.81-9.18-13.55-13.4-6.77-6.63-14.32-12.4-22.53-17.24-2.84-1.67-5.48-.51-6.86 1.57-.07-.35-.18-.68-.32-1-.69-1.8-2.27-3.27-4.73-3.41-.96-.06-1.91-.13-2.87-.19-9.39-1.77-18.9-2.71-28.47-2.78-3.74-.03-5.35 2.72-5.07 5.43-2.71 1.15-3.04 4.31-1.74 6.77-.06.17-.09.35-.14.52-.09.02-.19.04-.28.05-.11-.49-.29-.98-.57-1.43-.16-.25-.31-.5-.47-.75 0-.02.02-.04.03-.06 2-4.51-1.13-8.34-4.79-10.61-3.51-2.18-6.85.28-7.69 3.38-2.43-1.92-5.23-1.5-7.05.02-.09-.04-.18-.09-.27-.13-2.58-1.2-5.78-.12-7.31 1.95-2.79-.86-5.34 1.15-6.16 3.75-1.5.05-2.9.7-3.91 1.71-.73-.42-1.45-.84-2.19-1.25-2.65-1.45-6.16-.02-7.6 2.35-.26-.14-.51-.28-.76-.42-3.34-1.74-6.56.12-7.58 2.86-2.57-1.22-5.17-2.37-7.81-3.46-3.4-1.41-5.64.93-6.22 3.77-3.24.24-5.53 3.21-4.74 6.41-5.13-2.39-10.37-4.58-15.72-6.52-3.97-1.44-7.86 3.23-6.48 6.91-5.34-2.09-10.84-3.8-16.56-5.01-4.01-.85-6.67 2.11-6.54 5.37-5.61-2.24-11.32-4.27-17.12-6.08-3.04-.95-5.44.91-6.27 3.36-5.83-2.32-11.72-4.48-17.67-6.49-3.13-1.06-6.12 1.58-6.72 4.48-4.18-1.38-8.41-2.63-12.69-3.73-4.2-1.08-6.66 2.11-6.44 5.38-6.28-2.18-12.62-4.22-19.01-6.09-4.21-1.23-6.92 2.44-6.49 5.87-2.28-.69-4.58-1.35-6.89-1.98a168.067 168.067 0 00-40.81-17.3c-3.85-1.06-6.48 1.89-6.52 5.09-2.84-1.1-6.51-.03-7.22 3.04-.71.84-1.11 1.96-.96 3.39.17 1.55.36 3.1.55 4.65-3.03-.66-6.8 1.74-6.86 5.23-.27 16.05 3.24 31.72 10.23 46.06 1.38 5.12 3.13 10.18 5.25 15.14-.16 1.12-.03 2.28.45 3.3 1.06 2.26 2.23 4.42 3.48 6.53-.53.59-.92 1.34-1.08 2.3a83.08 83.08 0 00-1.12 14.27c-3.58 19.62-3.43 39.65.42 59.26-1.52 1.68-2.08 4.38-.99 6.54.66 1.31 1.35 2.59 2.05 3.87-.02.5.02 1.01.15 1.53 1.51 6.01 3.79 11.61 6.61 16.91-.43 0-.86 0-1.29.06-5.45.69-7.82 5.63-7.15 10.7.52 3.97 2.55 7.89 4.65 11.5-.58.37-1.15.8-1.71 1.31-1.25 1.15-2.05 3.55-1.37 5.19 1.67 3.99 3.54 7.84 5.59 11.57-.59.59-1.05 1.36-1.32 2.29-1.64 5.75.45 11.37 3.68 16.51-3.31.02-6.75 3.12-5.36 6.68 1.43 3.67 3.22 7.05 5.25 10.24-2.21-.96-4.43-1.9-6.68-2.79-4.18-1.66-8.7 4.19-6.02 7.83 9.52 12.93 21.61 23.4 35.9 30.56 7.71 4.43 15.96 7.94 24.63 10.42.21.06.43.1.65.13.86 1.05 2.14 1.81 3.84 1.99 15.71 1.66 31.43 3.31 47.14 4.97 1.8.19 3.18-.63 4.07-1.87 3.03.83 6.09 1.54 9.18 2.13 5.03.96 7.9-4.34 6.11-7.79 4.7 2.12 9.58 3.91 14.61 5.34 2.6.74 4.55-.28 5.61-1.94 4.31 1.89 8.78 3.47 13.37 4.7 5.94 1.6 9.15-6.5 4.11-9.74-2.02-1.3-4.08-2.55-6.15-3.77 4.23 1.98 8.56 3.75 13 5.33 2.74.97 4.77-.24 5.75-2.16 2.16 1.25 4.31 2.5 6.47 3.75 5.76 3.33 10.69-4.79 5.98-8.75 1.98.93 3.96 1.85 5.96 2.74 6.3 2.79 10.93-5.1 5.38-9.21-.34-.25-.68-.49-1.02-.74 3.89 1.95 7.76 3.93 11.6 6 2.85 1.48 5.55.26 6.98-1.8 4.32-.68 6.79-6.95 2.02-9.81-.81-.49-1.63-.95-2.44-1.43a6.01 6.01 0 002.16-2.66c2.18 1.38 4.36 2.76 6.55 4.12 3.83 2.38 7.16-.44 7.65-3.82.91.51 1.81 1.03 2.73 1.54 4.57 2.52 9.94-2.91 7.6-7.01.15.07.31.15.46.23 5.07 2.4 11.41-4.18 6.46-8.37-.19-.16-.39-.32-.58-.48 2.47-.42 4.86-2.32 5-5.16.46-9.37-.14-18.58-1.62-27.69.88-6.06.87-12.18.03-18.18.63-1.01.92-2.23.75-3.47.61.53 1.41.93 2.49 1.11 1.69.29 3.36.49 5.02.62.08.04.14.09.22.13 1.55.83 3.91.98 5.52-.03 2.71-.11 5.43-.42 8.21-.99.81-.17 1.49-.47 2.03-.86 2.49-.03 4.99 0 7.5.07 2.22.07 3.71-.98 4.49-2.45.8.2 1.71.24 2.73.04a85 85 0 0021.28-7.23c3.42.04 6.84-1.49 9.78-3.69 4.87-3.64 9.12-8.42 13.32-12.99 1.13-1.15 2.24-2.32 3.31-3.53 1.87-2.12 1.71-4.64.55-6.5.3-.51.59-1.03.88-1.55 2-1.85 3.97-3.74 5.92-5.64 1.04-1.02 1.53-2.15 1.61-3.25 2.47.73 5.44-.22 6.62-3.51 2.93-8.15 5.12-16.51 6.57-24.99 2.09-.77 3.86-2.87 4.07-5.15 1.19-12.79 1.05-25.55-.29-38.26 1.56-1.16 2.63-3.1 2.29-5.51-.14-1.01-.3-2.01-.44-3.02 1.13-.92 1.86-2.26 1.69-3.91zM190.47 436.89l-6.03-3.6c-.05-.71-.23-1.42-.62-2.08-.15-.26-.32-.52-.47-.78.03.02.05.05.07.08 2.3 2.18 4.66 4.3 7.04 6.38zm-20.04-89.46c4.02 3.54 8.31 6.83 12.88 9.8.12.08.23.12.35.18.78.69 1.57 1.35 2.39 1.97-.23.28-.43.58-.6.91-1.2-.65-2.46-.72-3.61-.39-3.46-4.66-7.4-8.89-11.71-12.67.1.06.2.13.3.19zm11.55 80.79a78.312 78.312 0 00-4.51-6.26c1.17.76 2.35 1.5 3.54 2.22.31.43.68.82 1.08 1.15-.33.92-.41 1.91-.11 2.89zm-19.03-190.33c.31.97.61 1.94.89 2.92-.17.35-.3.73-.37 1.13-.03.17-.04.34-.07.51-.05-.05-.1-.1-.16-.15-.29-1.63-.59-3.27-.92-4.89.21.16.41.32.62.48zm-8.98 91.85c.15.1.31.2.47.28 2.52 3.42 5.25 6.67 8.15 9.78.04.66.19 1.31.45 1.92a79.54 79.54 0 00-5.94-3.78c-1.38-2-2.68-4.06-3.88-6.16.26-.67.51-1.35.73-2.04zm-2.01 49.8c-.84-1.51-1.7-3.05-2.45-4.63 3.27 2.05 8.1 4.76 8.93 5.38.33.25.65.51.97.76 5.96 7.02 12.58 13.56 19.14 19.92.15.15.31.28.47.4-.12.07-.23.16-.34.24-.85-.23-1.69-.46-2.54-.68a91.927 91.927 0 00-10.17-9.34c-3.18-2.49-7.17-5.67-11.36-7.6-.92-1.46-1.82-2.94-2.66-4.46zm39 84.99a75.881 75.881 0 00-12.12-9.47c-7.37-5.6-14.79-11.66-20.39-19.02.45.23.9.47 1.35.71 6.05 6.56 12.8 12.4 20.05 17.64 1.06.77 2.25.95 3.39.74 4.62 3.1 9.29 6.12 14.04 8.98 1.94 1.63 3.84 3.32 5.68 5.06-4.09-1.34-8.1-2.88-12.02-4.64zm28.57-219.66c-1.91-1.27-4.1-2.51-6.34-3.39-.17-.92-.59-1.84-1.34-2.69-1.32-1.5-2.68-2.97-4.06-4.41.12-.04.24-.08.35-.13 3.9 2.98 7.84 5.89 11.8 8.77-.1.68-.05 1.37.19 2.04.04.1.08.2.11.3-.24-.16-.47-.33-.71-.48zm4.5-15.57c-3.49-1.79-6.99-3.54-10.51-5.26a5.89 5.89 0 001.42-1.57c3.1 1.45 6.24 2.85 9.4 4.2-.34.83-.47 1.73-.31 2.63zm13.67 27.62c-.53-.84-1.05-1.68-1.55-2.54 3.95 2.67 7.91 5.3 11.93 7.87-3.43-1.83-6.9-3.59-10.38-5.33zm38.49 210.47c1.36.34 2.72.7 4.06 1.1 1.37.88 2.74 1.74 4.14 2.58-2.7-1.3-5.43-2.52-8.2-3.68zm-17.7-220.3a384.09 384.09 0 0122.52 14.77c1.97 1.39 3.92 2.81 5.85 4.24-9.88-5.67-19.35-12.04-28.37-19.01zm62.06-40.55c.46.47.93.93 1.4 1.39a242.47 242.47 0 00-11.27-6.81c3.35 1.67 6.64 3.49 9.87 5.41zm-24.81 133.43c-.26 1.29-.52 2.58-.79 3.87a59.16 59.16 0 00-1.61-3.18c.8-.17 1.6-.41 2.41-.69zm.89 49.75c-3.03-1.19-5.56.96-6.36 3.62-.42-.53-.82-1.08-1.24-1.6.61-1.26.81-2.73.43-4.09 1.94.02 3.66-1.42 4.48-3.21 2.08 2.13 4.07 4.33 5.94 6.59-1.08-.44-2.15-.89-3.24-1.31zM306.65 358c-1.03-1.09-2.08-2.17-3.15-3.23.28-1.19.55-2.39.82-3.58.72.97 1.43 1.93 2.16 2.89-.31 1.36-.11 2.88.81 4.29-.21-.12-.42-.25-.64-.37zm-2.79-111.86c3.93 2.55 7.79 5.21 11.5 8.08.85.66 1.68 1.33 2.51 2.01-4.81-3.15-9.48-6.52-14-10.09zm14.6 31.86c.67.26 1.35.51 2.02.76 1.06 1.2 2.07 2.44 3.01 3.72-1.67-1.51-3.35-3-5.04-4.49zm19.67 18.93c.19-.16.38-.33.55-.52.26.42.53.84.8 1.26-.45-.24-.9-.49-1.36-.73zm-.74-45.28a266.42 266.42 0 00-25.06-19.99c1.63-.5 2.92-1.81 3.53-3.35 1 .49 2 .98 3 1.46.22.57.54 1.13.98 1.64 6.55 7.53 13.8 14.37 21.64 20.46.25.9.57 1.8.95 2.7-1.7-.96-3.38-1.93-5.05-2.93zm14.94-35.91c-7.69-5.9-15.57-11.65-23.78-16.77 7.41 3.8 14.53 8.13 21.33 12.93 1.16 1.07 2.32 2.14 3.5 3.18-.37.18-.72.4-1.05.66zm19.87 28.75c-.63-.84-1.25-1.64-1.85-2.41 1.67 1.15 3.43 2.22 5.25 3.02.31.47.61.95.9 1.44-1.44-.67-2.87-1.34-4.3-2.04zm7.78 16.07c.54.21 1.09.4 1.64.6v1.1c-.55-.57-1.09-1.15-1.65-1.7zM396.63 194s-.08-.09-.12-.13c.26-.34.46-.71.63-1.1.19 1.21.77 2.39 1.63 3.29-.26.12-.53.24-.8.36-.2-.83-.63-1.65-1.34-2.42zm-5.22 8.95c.75.21 1.49.21 2.21.07-.02 3.23 2.85 6.6 6.68 5.49 6.47-1.86 12.55-4.56 18.25-8.16a5.078 5.078 0 002.11-2.66c1.1-.59 2.2-1.19 3.3-1.78 7.65.55 15.3 1.1 22.95 1.64 6.18 3.09 12.47 5.96 18.86 8.62.98 8.37 5.35 16.02 12.16 20.89a180.53 180.53 0 0012.79 20.78c0 .06.01.13.02.19-1.11.68-1.91 1.84-2.04 3.48-1.93.58-3.43 2.19-3.21 4.87 1.1 13.06 2.2 26.12 3.31 39.18-.87.39-1.63 1.01-2.16 1.85-2.6-.44-5.45.67-5.97 3.71-1.97 11.52-4.5 22.92-7.57 34.18-1.25-.04-2.59.37-3.85 1.44a92.209 92.209 0 00-5.89 5.45c-5.45 3.35-10.74 6.96-15.82 10.89-3.4 2.63-8.14 5.72-11.02 9.61-9.59-1.83-19.28-3.02-29.02-3.51a27.13 27.13 0 00-3.11-4.29 4.98 4.98 0 00-.68-.63c1.84-1.59 2.74-4.23 1.13-6.57-2.11-3.06-4.33-6.02-6.64-8.9.13-3.78.18-7.56.17-11.33 1.4-.9 2.44-2.35 2.52-4.21 1.25-28.97-.96-57.92-6.42-86.39 3.34-.77 6.25-4.64 3.79-7.91-.09-.12-.19-.24-.28-.36.46-1.26.57-2.67.45-4.14.75-1.18 1.07-2.64.65-4.12-1.07-3.72-2.98-6.98-5.66-9.52.63-1.79.45-3.85-1.1-5.4-.5-.5-1.03-.98-1.54-1.47.24-.31.46-.64.64-.99z"></path><path fill="#DB3F29" d="M399.69 148.69c-1.29-.69-2.58-1.37-3.88-2.05 0-1.62-.74-3.24-2.54-4.32-11.77-7.08-24.49-11.93-37.8-14.57-.11-.05-.23-.1-.34-.14-.9-.37-1.73-.47-2.47-.37-3.21-.56-6.46-.99-9.74-1.29-.62-.7-1.49-1.21-2.63-1.41a387.79 387.79 0 00-46.58-5.25c-.85-.89-2.1-1.47-3.76-1.45-11.68.15-23.34.61-34.98 1.38-5.09.24-10.19.59-15.28 1.03a4.703 4.703 0 00-3.15-1.11c-22.13.41-44.11 3.4-65.47 8.9-2.78.46-5.55.92-8.33 1.41-1.23.22-2.15.85-2.77 1.69a279.45 279.45 0 00-22.74 7.94c-4.01 1.6-4.55 5.68-2.71 8.22-2.05.63-4.11 1.25-6.16 1.9-.95.3-1.69.77-2.27 1.34-4.8 1.5-4.16 7.55-.6 9.6-.87 3.7 1.81 8.11 6.24 6.37 7.24-2.85 14.48-5.71 21.72-8.56.4-.16.76-.34 1.09-.55 3.66-1.22 7.3-2.54 10.9-3.98.33-.13.63-.28.91-.45l77.11-6.63c11.98.21 23.95.67 35.91 1.34.52.21 1.09.36 1.72.42 23.25 2.14 46.51 4.28 69.76 6.41 1.04.1 1.94-.15 2.69-.6.22-.04.44-.09.64-.16a675 675 0 0011.27 4.44c6.87 2.94 13.89 5.51 21.06 7.69 5.12 1.55 7.85-4.1 5.87-7.78.28-.17.54-.38.79-.6.8.32 1.61.64 2.41.96 5.64 2.24 9.36-6.92 4.11-9.74zm-59.46-12.4c2.56.99 5.12 1.97 7.68 2.96-.46.14-.87.36-1.26.61-.62-.83-1.52-1.49-2.76-1.78-2.98-.7-5.98-1.32-8.98-1.9a4.58 4.58 0 002.13-1.25c.42.01.83.03 1.25.05.53.55 1.17 1.02 1.94 1.31z"></path><path fill="#03081B" d="M398.82 138.59c-18.4-8.22-37.9-13.62-57.78-16.83-20.06-3.24-40.4-4.39-60.7-4.41-20.49-.02-41 .99-61.43 2.42s-42.25 3.84-62.54 9.9c-8.5 2.54-17.75 5.37-24.58 11.29-3.23 2.8-6.48 6.9-6.77 11.33s2.92 7.28 6.35 9.17c4.19 2.31 8.86 3.96 13.35 5.6 4.79 1.75 9.66 3.28 14.58 4.64 9.87 2.71 19.93 4.67 30.05 6.13 20.39 2.93 41 3.84 61.56 4.56s41.77 1.23 62.64.15c20.71-1.07 41.44-3.7 61.45-9.28 5.01-1.39 9.96-2.97 14.84-4.75 4.2-1.52 8.5-3.12 12.07-5.86 3.24-2.48 6.99-6.93 5.46-11.33-.69-1.98-2.35-3.33-4.1-4.35-2.2-1.28-4.54-2.36-6.84-3.44-4.77-2.26-9.65-4.3-14.61-6.14-1.81-.67-2.6 2.23-.8 2.89 4.96 1.84 9.84 3.89 14.61 6.18 2.17 1.04 4.42 2.05 6.48 3.32s3.13 3.01 2.16 5.44c-1.6 4.03-5.9 6.5-9.65 8.2-4.3 1.95-8.86 3.41-13.35 4.84-19.04 6.04-38.87 9.22-58.77 10.71-20.06 1.51-40.21 1.36-60.3.78s-39.69-1.21-59.42-3.26c-19.54-2.04-39.03-5.63-57.53-12.4-4.28-1.57-8.78-3.12-12.74-5.4-1.57-.9-3.2-2.05-4.02-3.72-1.07-2.18-.23-4.55.9-6.52 4.2-7.34 12.74-10.81 20.33-13.46 19.25-6.73 39.54-9.73 59.78-11.47 19.77-1.69 39.65-2.69 59.49-3.04 19.55-.35 39.15.17 58.58 2.45s38.28 6.31 56.48 12.93c4.47 1.63 8.89 3.41 13.24 5.35 1.75.78 3.28-1.8 1.51-2.59z"></path><path fill="#03081B" d="M124.57 157.23c-.36.24-.25-.4-.27.1 0 .11.27.47.31.59.22.61.19 1.33.25 1.96.11 1.35.23 2.7.34 4.06l.66 8.11c.43 5.41.85 10.82 1.25 16.23.81 10.82 1.56 21.64 2.28 32.47 1.42 21.65 2.67 43.32 3.81 64.99s2.16 43.35 3.15 65.04 1.92 43.37 2.87 65.05l.72 16.26c.24 5.42.33 10.45.82 15.64.81 8.46 3.52 17.54 11.31 22.13 1.67.98 3.51 1.65 5.42 1.96s2.7-2.58.8-2.89c-9.41-1.53-13.38-11.37-14.38-19.77-.63-5.24-.68-10.55-.92-15.81s-.48-10.84-.72-16.26c-.96-21.89-1.91-43.79-2.9-65.68-.99-21.89-2.02-43.78-3.17-65.66s-2.41-43.75-3.85-65.62c-.72-10.93-1.49-21.86-2.3-32.78-.41-5.41-.82-10.82-1.26-16.23-.22-2.81-.45-5.62-.69-8.42-.18-2.14.03-4.79-1.08-6.71-.83-1.42-2.44-2.35-3.96-1.34-1.6 1.06-.1 3.66 1.51 2.59zM402.86 155.62c-2.22 20.88-2.86 41.88-3.16 62.87-.3 21.08-.34 42.16-.38 63.23-.03 21.09-.05 42.17-.25 63.26-.2 21.08-.59 42.16-1.38 63.22-.38 10.2-.52 20.51-1.57 30.66-.87 8.37-3.45 17.53-10.8 22.52-1.63 1.11-3.39 1.9-5.3 2.38s-1.08 3.37.8 2.89c7.77-1.97 13.2-8.64 15.84-15.93 3.4-9.4 3.08-20.04 3.52-29.89.97-21.47 1.49-42.96 1.77-64.45s.33-42.79.36-64.18c.03-21.5.05-43 .28-64.5s.61-42.82 2.5-64.15c.23-2.65.49-5.3.78-7.95.2-1.92-2.8-1.9-3 0z"></path><path fill="#03081B" d="M157.95 473.5l-3.73-3.78-1.82 2.36c14.89 6.65 30.51 11.49 46.57 14.36 16.74 2.99 33.82 4.5 50.76 5.79s34.38 1.85 51.54.45c15.09-1.23 30.1-3.98 44.44-8.89 13.77-4.72 26.87-11.41 38.37-20.38 1.43-1.12 2.83-2.27 4.21-3.45 1.47-1.26-.66-3.37-2.12-2.12-10.86 9.34-23.53 16.45-36.91 21.5s-28.25 8.34-42.86 9.87c-16.7 1.75-33.54 1.54-50.28.47-8.35-.53-16.69-1.28-25.01-2.12s-16.75-1.72-25.07-2.98c-15.94-2.43-31.54-6.56-46.47-12.67-1.89-.77-3.77-1.58-5.64-2.42-1.48-.66-3.09 1.06-1.82 2.36l3.73 3.78c1.36 1.38 3.48-.74 2.12-2.12zM396.82 347.08c7.16 7.41 16.82 12.04 27.02 13.29s21.12-1.34 29.99-6.8 15.85-14.35 20.85-23.81 8.95-20.17 11.4-30.88c4.81-20.95 4.73-43.62-1.49-64.27-5.26-17.47-16.17-35.14-34.3-41.26-16.24-5.49-35.67-.28-47.13 12.44a41.859 41.859 0 00-3.95 5.15c-1.06 1.62 1.54 3.13 2.59 1.51 8.91-13.69 26.7-20.64 42.62-17.55 17.72 3.45 29.44 18.89 35.42 34.98 7.05 18.97 8.18 40.36 4.91 60.23-1.71 10.41-4.68 20.66-8.91 30.33s-9.26 18.61-16.89 25.56-17.04 10.93-26.97 11.6-19.6-2.14-27.56-7.84c-1.98-1.42-3.8-3.03-5.49-4.79-1.34-1.39-3.46.73-2.12 2.12z"></path><path fill="#03081B" d="M401.65 171.19c23.58-5.67 49.26-1.79 69.05 12.59 8.71 6.33 16.09 14.56 21.25 24.02 6.02 11.03 8.92 23.63 11.11 35.92 4.32 24.27 4.3 49.58-1.75 73.55-3.02 11.99-7.49 23.77-13.83 34.42-5.49 9.22-12.74 17.23-21.49 23.46-16.51 11.74-37.5 17.36-57.64 14.62-2.53-.34-5.05-.84-7.53-1.44-1.88-.46-2.68 2.44-.8 2.89 20.58 5 42.78 1.24 61.04-9.34 9.17-5.32 17.3-12.37 23.73-20.81 7.65-10.05 12.95-21.95 16.81-33.92 7.82-24.25 9.09-50.31 5.71-75.47-1.72-12.83-4.28-25.97-9.26-37.97a75.313 75.313 0 00-19.79-27.68c-18.57-16.37-43.83-22.83-68.17-19.48a96.42 96.42 0 00-9.24 1.75c-1.88.45-1.08 3.34.8 2.89zM252.14 135.99c7.18-8.78 9.96-20.34 8.79-31.52-.61-5.78-2.2-11.34-4.68-16.59-2.9-6.13-6.74-11.75-9.62-17.89-3.09-6.61-4.94-14.28-2.43-21.37.49-1.39-1.55-2.59-2.51-1.46-7.06 8.34-7.97 19.93-5.74 30.26 2.64 12.23 9.18 23.11 12.67 35.07 1.98 6.79 3 13.95 1.51 20.95-.4 1.88 2.49 2.69 2.89.8 2.63-12.26-1.63-24.35-6.31-35.54s-9.49-21.62-8.79-33.43c.34-5.76 2.12-11.52 5.89-15.97l-2.51-1.46c-4.59 12.98 3.58 25.42 9.62 36.31 2.92 5.26 5.29 10.66 6.44 16.59 1.05 5.44 1.14 11.14.13 16.59-1.13 6.03-3.57 11.8-7.47 16.57-1.21 1.48.9 3.62 2.12 2.12zM288.09 136.75c3.07-7.81 6.1-15.91 6.4-24.39.15-4.11-.44-8.3-1.98-12.13s-3.85-7.2-5.73-10.83c-2.06-3.98-3.47-8.61-1.81-12.98h-2.89c1.19 4.38 4.64 7.35 7.79 10.38 3.36 3.23 6.22 6.92 8.35 11.07 4.02 7.85 4.93 17.22.95 25.28-2.08 4.21-5.27 7.72-9.45 9.89-1.71.89-.2 3.48 1.51 2.59 7.96-4.13 12.69-12.69 13.45-21.45.84-9.72-3.52-19.25-9.78-26.46-3.32-3.82-8.54-6.98-9.93-12.1-.41-1.53-2.39-1.32-2.89 0-3.03 8 2.38 15.48 5.99 22.2 2 3.72 3.23 7.64 3.42 11.88s-.49 8.43-1.56 12.51c-1.23 4.69-2.95 9.23-4.72 13.73-.71 1.8 2.19 2.58 2.89.8zM154.92 373.91c-.19-.63-.02-1.04.49-1.46l-2.56-1.06c.38 13.91 1.11 27.8 2.18 41.67.52 6.77 1.13 13.53 1.82 20.29.62 6.1 1.07 12.53 4.04 18.03 2.76 5.1 8.32 9.29 14.36 8.54 1.89-.23 1.91-3.24 0-3-5.14.63-9.58-2.89-11.87-7.25-2.76-5.26-3.05-11.52-3.63-17.31-1.3-12.93-2.31-25.9-3-38.88-.4-7.36-.69-14.72-.9-22.09-.04-1.37-1.58-1.89-2.56-1.06-1.28 1.08-1.73 2.79-1.26 4.38.55 1.85 3.45 1.06 2.89-.8zM364.45 194.27c3.32-1.19 6.63-2.38 9.95-3.56l4.97-1.78c.83-.3 1.65-.61 2.49-.89.58-.2.92-.48 1.1.19.38 1.41.1 3.17.1 4.62v5.31c0 3.54.01 7.08.02 10.62 0 1.93 3 1.93 3 0 0-4.13-.01-8.26-.02-12.39v-5.75c0-1.53.11-3.26-.83-4.57-1.07-1.5-2.8-1.41-4.37-.85-1.87.66-3.73 1.34-5.6 2.01l-11.61 4.16c-1.8.65-1.03 3.55.8 2.89z"></path><path fill="#03081B" d="M151.15 143.54c27.77-9.11 56.97-12.41 86.08-13.18 14.67-.39 29.35-.15 44.01.28s29.11.79 43.63 1.79c16.32 1.13 32.64 3.4 48.15 8.81 1.83.64 2.61-2.26.8-2.89-13.9-4.85-28.5-7.19-43.12-8.46s-29.54-1.62-44.3-2.09c-29.38-.94-58.93-1.32-88.15 2.38-16.24 2.06-32.32 5.36-47.88 10.47-1.83.6-1.04 3.5.8 2.89zM391.34 164.55c-15.66-5.59-32.07-8.55-48.5-10.74s-33.94-3.84-50.99-4.81-34.4-1.31-51.61-.99-34.4 1.27-51.54 2.88c-15.97 1.5-32.2 3.25-47.36 8.77-1.88.68-3.73 1.43-5.57 2.23s-.24 3.35 1.51 2.59c14.66-6.32 30.67-8.51 46.43-10.1 16.96-1.71 33.98-2.79 51.01-3.24s33.92-.26 50.86.54 33.85 2.24 50.68 4.3 32.77 4.56 48.54 9.54c1.92.61 3.83 1.25 5.73 1.93s2.61-2.25.8-2.89z"></path><path fill="#03081B" d="M381.33 163.98a21.965 21.965 0 00-8.6-1.48c-1.57.04-1.93 1.95-.76 2.8a7.76 7.76 0 005.09 1.45c1.57-.1 2.17-2.66.4-2.95-5.54-.88-11.07-1.77-16.61-2.65-1.86-.3-2.71 2.39-.8 2.89 4.11 1.08 8.22 2.15 12.34 3.23l.4-2.95c-1.02-.12-2.04-.24-3.07-.35v3c2.72.04 5.44.08 8.17.11 1.71.02 2.01-2.47.4-2.95-3.9-1.16-7.96-1.69-12.02-1.56-1.94.06-1.93 2.91 0 3 3.25.16 6.5.31 9.76.47 1.93.09 1.92-2.89 0-3-2.9-.17-5.8-.35-8.71-.52-1.69-.1-2.03 2.55-.4 2.95 4.31 1.04 8.74 1.47 13.17 1.24v-3l-19.08 1.56c-1.61.13-2.12 2.49-.4 2.95 3.4.91 6.9 1.19 10.4.81 1.88-.21 1.96-3.11 0-3l-13.05.75c-1.91.11-1.94 3.06 0 3 4.82-.14 9.64-.29 14.47-.43l-.4-2.95c-7.04 1.93-14.2 3.4-21.44 4.32-1.87.24-1.94 3.2 0 3 4.34-.44 8.67-.87 13.01-1.31v-3c-10.55 1.21-21.11 2.43-31.66 3.64-1.88.22-1.94 3.17 0 3 7.64-.66 15.27-1.32 22.91-1.99 1.9-.17 1.95-2.91 0-3-13.54-.6-27.1.27-40.46 2.53-1.65.28-1.29 3.14.4 2.95l26.14-2.94c1.87-.21 1.98-3.05 0-3-12.42.32-24.83.63-37.25.95v3c17.58-.95 35.16-1.91 52.74-2.86 1.59-.09 2.16-2.65.4-2.95a699.194 699.194 0 00-44.67-6.01v3c17.14.22 34.27.44 51.41.67 1.65.02 2.09-2.62.4-2.95a329.003 329.003 0 00-49.88-5.72v3c10.73.37 21.45.75 32.18 1.12 1.65.06 2.09-2.67.4-2.95-13.24-2.18-26.58-3.7-39.98-4.53-1.66-.1-2.08 2.71-.4 2.95 13.8 1.9 27.69 2.89 41.62 2.91 1.94 0 1.92-2.91 0-3-17.45-.8-34.91-1.6-52.36-2.41l-14.96-.69c-1.66-.08-2.09 2.7-.4 2.95 16.8 2.41 33.79 3.21 50.75 2.3 1.93-.1 1.93-2.9 0-3a698.073 698.073 0 00-56.22-.76c-1.95.05-1.91 2.86 0 3 17.7 1.27 35.43 2.22 53.16 2.84 1.94.07 1.91-2.88 0-3l-59.86-3.84v3l42.87-1.62c1.94-.07 1.92-2.87 0-3a861.416 861.416 0 00-56.58-1.99c-1.96 0-1.9 2.84 0 3 17.51 1.48 35.02 2.97 52.53 4.45v-3c-17.9-.05-35.8-.09-53.7-.14-1.94 0-1.92 2.89 0 3l52.08 2.91 14.7.82v-3c-19.32-.41-38.66.16-57.92 1.71-1.91.15-1.95 2.93 0 3 18.93.7 37.86 1.4 56.79 2.11v-3c-20.29.98-40.57 1.97-60.86 2.95-1.92.09-1.94 2.97 0 3l53.43.69 15.16.2v-3c-19.08.05-38.16.87-57.18 2.46-1.91.16-1.95 2.91 0 3l55.3 2.45v-3c-16.53-.3-33.06.21-49.54 1.51-1.9.15-1.95 2.95 0 3 11.61.31 23.22.61 34.84.92v-3c-9.74.95-19.48 1.9-29.21 2.84-1.89.18-1.97 2.97 0 3 9.2.15 18.4.31 27.6.46 1.93.03 1.93-2.94 0-3-12.86-.4-25.73-.79-38.59-1.19v3l28.18.78c1.65.05 2.1-2.71.4-2.95-18.41-2.6-37-3.18-55.57-3.23-5.33-.02-10.66 0-15.99.03v3c17.46-.46 34.93-.34 52.38.34v-3c-20.1 0-40.19.64-60.24 1.94v3a463.74 463.74 0 0153.64-.68v-3c-17.66.19-35.32.39-52.97.58v3l43.04-3.24c1.92-.14 1.94-2.88 0-3a698.257 698.257 0 00-54.52-1.29v3l54.24-2.01c1.92-.07 1.94-3.02 0-3l-60.34.51v3l50.11-1.56 14.39-.45c1.92-.06 1.94-3.03 0-3-17.92.28-35.84.55-53.75.83l-15.43.24.4 2.95c17.29-2.78 34.74-4.51 52.24-5.19 5-.19 10.01-.3 15.01-.32 1.93 0 1.93-3.01 0-3-17.59.05-35.16.63-52.73 1.33-4.97.2-9.95.41-14.92.61v3c20.87-1.69 41.74-3.39 62.61-5.08 1.91-.16 1.95-2.9 0-3-18.11-.89-36.26-.74-54.35.48-5.1.34-10.19.77-15.27 1.28l.4 2.95c15.96-3.1 32.09-5.28 48.3-6.54 1.9-.15 1.95-3.06 0-3-14.98.46-29.93 1.57-44.82 3.33-1.87.22-1.95 3.16 0 3 18.86-1.52 37.73-3.04 56.59-4.57 1.9-.15 1.96-2.99 0-3-21.18-.14-42.35.85-63.42 2.99-1.89.19-1.95 3.13 0 3a698.16 698.16 0 0056.44-6.12c1.69-.25 1.26-2.98-.4-2.95-18.52.38-37.01 1.85-55.37 4.38-5.26.73-10.51 1.55-15.75 2.45l.8 2.89c15.17-2.79 30.47-4.78 45.84-5.97v-3a829.6 829.6 0 00-60.07 6.97l.8 2.89 41.46-6.48c1.67-.26 1.28-3.05-.4-2.95-14.58.89-29.09 2.88-43.38 5.96-1.64.35-1.29 3.03.4 2.95 10.59-.55 21.19-1.09 31.78-1.64v-3c-10.02.88-20 2.1-29.93 3.67-1.75.28-1.2 2.85.4 2.95 13.97.82 27.95 1.33 41.94 1.53l-.4-2.95c-14.95 2.24-30.02 3.6-45.12 4.1v3c16.25-.76 32.53-.59 48.75.5v-3c-15.25.61-30.55-.17-45.65-2.41l-.4 2.95c17.2 2.05 34.41 4.09 51.61 6.14v-3c-15.13-1.51-30.26-3.02-45.39-4.54-1.67-.17-2.05 2.62-.4 2.95 15.21 3.02 30.64 4.84 46.14 5.43 1.94.07 1.92-2.89 0-3l-38.34-2.13c-1.67-.09-2.07 2.63-.4 2.95 11.15 2.11 22.48 3.16 33.83 3.09 1.95-.01 1.91-2.87 0-3a316.954 316.954 0 01-57.03-9.1l-.8 2.89c11.44 2.31 23.06 3.68 34.72 4.08 1.97.07 1.87-2.78 0-3-9.75-1.12-19.51-2.25-29.26-3.37v3c5.78.55 11.57 1.11 17.35 1.66 1.69.16 2.02-2.55.4-2.95a76.443 76.443 0 00-13.62-2.04v3l18.86-1.8c1.89-.18 1.97-2.99 0-3-6.11-.02-12.23-.05-18.34-.07-1.64 0-2.1 2.62-.4 2.95 14.64 2.79 29.27 5.58 43.91 8.36l.4-2.95c-11.42-.18-22.81-1.12-34.1-2.84-1.86-.28-2.72 2.41-.8 2.89 12.61 3.2 25.52 5.2 38.51 5.97 1.93.12 1.92-2.89 0-3-12.73-.76-25.35-2.73-37.71-5.87l-.8 2.89c11.56 1.76 23.21 2.76 34.9 2.95 1.65.03 2.09-2.62.4-2.95-14.64-2.79-29.27-5.58-43.91-8.36l-.4 2.95c6.11.02 12.23.05 18.34.07v-3l-18.86 1.8c-1.9.18-1.95 2.89 0 3 4.33.25 8.61.9 12.82 1.93l.4-2.95c-5.78-.55-11.57-1.11-17.35-1.66-1.93-.19-1.89 2.78 0 3 9.75 1.12 19.51 2.25 29.26 3.37v-3c-11.4-.39-22.74-1.72-33.92-3.97-1.87-.38-2.69 2.41-.8 2.89 18.95 4.82 38.32 7.9 57.83 9.2v-3c-11.08.06-22.14-.92-33.03-2.98l-.4 2.95 38.34 2.13v-3a289.15 289.15 0 01-45.34-5.33l-.4 2.95c15.13 1.51 30.26 3.02 45.39 4.54 1.93.19 1.89-2.78 0-3l-51.61-6.14c-1.66-.2-2.07 2.7-.4 2.95 15.37 2.27 30.92 3.14 46.45 2.51 1.94-.08 1.92-2.87 0-3a430.926 430.926 0 00-48.75-.5c-1.92.09-1.94 3.06 0 3a398.95 398.95 0 0045.92-4.21c1.71-.26 1.24-2.92-.4-2.95-13.99-.2-27.97-.71-41.94-1.53l.4 2.95c9.67-1.52 19.38-2.71 29.14-3.56 1.9-.17 1.95-3.1 0-3-10.59.55-21.19 1.09-31.78 1.64l.4 2.95c14.03-3.02 28.26-4.97 42.58-5.85l-.4-2.95-41.46 6.48c-1.9.3-1.09 3.18.8 2.89 19.67-3.01 39.44-5.3 59.27-6.87 1.91-.15 1.93-3.15 0-3a449.004 449.004 0 00-46.64 6.08c-1.9.35-1.09 3.22.8 2.89 18.07-3.12 36.32-5.17 54.64-6.15 5.22-.28 10.45-.47 15.68-.58l-.4-2.95a687.812 687.812 0 01-55.64 6.01v3c21.07-2.13 42.24-3.13 63.42-2.99v-3c-18.86 1.52-37.73 3.04-56.59 4.57v3c14.88-1.75 29.84-2.86 44.82-3.33v-3a431.824 431.824 0 00-49.1 6.64c-1.64.32-1.29 3.12.4 2.95 18.04-1.8 36.17-2.57 54.3-2.26 5.11.09 10.21.26 15.32.51v-3c-20.87 1.69-41.74 3.39-62.61 5.08-1.9.15-1.95 3.08 0 3 17.57-.73 35.14-1.47 52.72-1.78 4.98-.09 9.95-.15 14.93-.16v-3a439.22 439.22 0 00-53.03 3.45c-5.02.64-10.03 1.36-15.02 2.16-1.69.27-1.26 2.97.4 2.95 17.92-.28 35.84-.55 53.75-.83l15.43-.24v-3l-50.11 1.56-14.39.45c-1.92.06-1.94 3.02 0 3l60.34-.51v-3l-54.24 2.01c-1.92.07-1.94 3.03 0 3 18.18-.28 36.37.15 54.52 1.29v-3l-43.04 3.24c-1.9.14-1.95 3.02 0 3 17.66-.19 35.32-.39 52.97-.58 1.94-.02 1.92-2.91 0-3a463.74 463.74 0 00-53.64.68c-1.91.13-1.93 3.13 0 3 20.05-1.3 40.15-1.94 60.24-1.94 1.94 0 1.92-2.92 0-3-17.45-.68-34.92-.79-52.38-.34-1.93.05-1.94 3.01 0 3 18.36-.08 36.74-.16 55.05 1.35 5.25.43 10.49 1 15.71 1.74l.4-2.95-28.18-.78c-1.93-.05-1.93 2.94 0 3 12.86.4 25.73.79 38.59 1.19v-3c-9.2-.15-18.4-.31-27.6-.46v3c9.74-.95 19.48-1.9 29.21-2.84 1.89-.18 1.97-2.95 0-3-11.61-.31-23.22-.61-34.84-.92v3c16.48-1.31 33.01-1.81 49.54-1.51 1.94.04 1.92-2.91 0-3l-55.3-2.45v3c19.02-1.59 38.09-2.41 57.18-2.46 1.93 0 1.93-2.98 0-3l-53.43-.69c-5.05-.07-10.11-.13-15.16-.2v3c20.29-.98 40.57-1.97 60.86-2.95 1.92-.09 1.94-2.93 0-3-18.93-.7-37.86-1.4-56.79-2.11v3a571.13 571.13 0 0157.92-1.71c1.94.04 1.92-2.89 0-3l-52.08-2.91-14.7-.82v3c17.9.05 35.8.09 53.7.14 1.96 0 1.9-2.84 0-3-17.51-1.48-35.02-2.97-52.53-4.45v3c18.88.04 37.75.71 56.58 1.99v-3l-42.87 1.62c-1.94.07-1.92 2.88 0 3l59.86 3.84v-3c-17.74-.62-35.46-1.56-53.16-2.84v3c18.74-.5 37.5-.25 56.22.76v-3c-16.67.89-33.42.18-49.95-2.19l-.4 2.95c17.45.8 34.91 1.6 52.36 2.41l14.96.69v-3c-13.65-.02-27.3-.94-40.82-2.8l-.4 2.95c13.13.81 26.2 2.28 39.18 4.42l.4-2.95c-10.73-.37-21.45-.75-32.18-1.12-1.93-.07-1.93 2.93 0 3 16.48.62 32.89 2.49 49.08 5.61l.4-2.95c-17.14-.22-34.27-.44-51.41-.67-1.97-.03-1.88 2.81 0 3a688.49 688.49 0 0143.87 5.91l.4-2.95c-17.58.95-35.16 1.91-52.74 2.86-1.91.1-1.94 3.05 0 3 12.42-.32 24.83-.63 37.25-.95v-3l-26.14 2.94.4 2.95c13.09-2.22 26.4-3.02 39.67-2.43v-3c-7.64.66-15.27 1.32-22.91 1.99v3c10.55-1.21 21.11-2.43 31.66-3.64 1.89-.22 1.93-3.19 0-3-4.34.44-8.67.87-13.01 1.31v3c7.51-.96 14.93-2.43 22.23-4.43 1.61-.44 1.32-3-.4-2.95-4.82.14-9.64.29-14.47.43v3l13.05-.75v-3c-3.24.36-6.45.14-9.6-.7l-.4 2.95 19.08-1.56c1.9-.16 1.95-3.1 0-3-4.17.21-8.31-.15-12.37-1.14l-.4 2.95c2.9.17 5.8.35 8.71.52v-3c-3.25-.16-6.5-.31-9.76-.47v3c3.82-.12 7.56.36 11.23 1.46l.4-2.95c-2.72-.04-5.44-.08-8.17-.11-1.98-.03-1.87 2.78 0 3 1.02.12 2.04.24 3.07.35 1.7.2 2-2.53.4-2.95-4.11-1.08-8.22-2.15-12.34-3.23l-.8 2.89c5.54.88 11.07 1.77 16.61 2.65l.4-2.95c-1.36.09-2.47-.25-3.57-1.04l-.76 2.8c2.7-.07 5.28.39 7.8 1.38 1.8.7 2.58-2.2.8-2.89zM242.32 64.03c-.64-2.1-3.62-2.05-4.33-.02-.39 1.11-.03 2.25.24 3.35.34 1.41.68 2.81 1.03 4.22l2.74-1.16c-.85-1.46-1.2-3.09-.91-4.76l-2.95-.4c.06 4.27 1 8.38 2.72 12.28.71 1.6 3.12.43 2.74-1.16-1.07-4.47-2.15-8.94-3.22-13.41-.46-1.91-3.19-1.07-2.89.8.53 3.3 1.06 6.6 1.59 9.91.26 1.64 2.41 1.19 2.89 0 1.41-3.53 1.55-7.44.46-11.08-.47-1.55-3.1-1.35-2.95.4l1.17 13.76 2.95-.4c-.95-4.44-1.89-8.87-2.84-13.31l-2.89.8c1.27 5.15 2.53 10.29 3.8 15.44 1.02 4.13 1.8 8.85 5.17 11.79 1.18 1.03 2.74.01 2.51-1.46-.81-5.05-2.39-9.9-4.64-14.49-.75-1.53-3.22-.46-2.74 1.16a83.563 83.563 0 006.33 15.43c.83 1.57 3.06.44 2.74-1.16-1-4.94-2.66-9.71-4.9-14.22l-2.59 1.51c3.9 5.17 6.93 10.91 8.93 17.07l2.74-1.16c-3.19-4.21-5.56-8.91-7-13.99l-2.74 1.16c3.75 5.06 6.36 10.78 7.69 16.94l2.74-1.16c-3.58-4.64-6.75-9.56-9.49-14.74-.93-1.75-3.33-.21-2.59 1.51 3.44 8.05 6.87 16.11 10.31 24.16l2.59-1.51c-4.15-7.89-8.3-15.79-12.46-23.68-.78-1.48-3.32-.46-2.74 1.16 3 8.44 6 16.88 9.01 25.32l2.74-1.16c-4.47-7.65-8.08-15.75-10.77-24.2l-2.89.8c3.23 8.7 6.6 17.36 10.11 25.95.73 1.79 3.2 1.13 2.89-.8l-2.46-15.22-2.74 1.16a65.04 65.04 0 016.07 25.61h3c-.31-5.71-.61-11.42-.92-17.13l-2.95.4c1.33 5.03 1.63 10.2.97 15.35h3c.57-4.63.83-9.29.78-13.95-.02-1.96-2.82-1.89-3 0-.46 4.91-.91 9.81-1.37 14.72-.16 1.69 2.55 2.02 2.95.4 1.25-5.14 1.6-10.44.96-15.69-.23-1.86-3.07-1.98-3 0 .12 3.77-.25 7.49-1.14 11.15l2.95.4c-.41-4.39-.25-8.79.54-13.12.34-1.89-2.55-2.7-2.89-.8-.84 4.6-1.08 9.26-.64 13.92.15 1.59 2.52 2.15 2.95.4a44.49 44.49 0 001.25-11.95h-3c.61 4.99.34 10-.86 14.89l2.95.4c.46-4.91.91-9.81 1.37-14.72h-3c.05 4.67-.21 9.32-.78 13.95-.24 1.92 2.76 1.89 3 0 .69-5.41.31-10.88-1.08-16.15-.42-1.6-3.04-1.32-2.95.4.31 5.71.61 11.42.92 17.13.1 1.92 3.06 1.94 3 0-.28-9.4-2.5-18.61-6.48-27.13-.78-1.66-2.99-.39-2.74 1.16l2.46 15.22 2.89-.8c-3.5-8.6-6.87-17.25-10.11-25.95-.66-1.78-3.49-1.07-2.89.8 2.77 8.68 6.48 17.04 11.07 24.91.83 1.43 3.33.49 2.74-1.16-3-8.44-6-16.88-9.01-25.32l-2.74 1.16c4.15 7.89 8.3 15.79 12.46 23.68.92 1.75 3.33.21 2.59-1.51-3.44-8.05-6.87-16.11-10.31-24.16l-2.59 1.51c2.74 5.18 5.91 10.1 9.49 14.74 1.01 1.3 3.12.61 2.74-1.16a45.799 45.799 0 00-7.99-17.66c-.95-1.28-3.24-.6-2.74 1.16a44.51 44.51 0 007.3 14.7c.94 1.24 3.31.61 2.74-1.16-2.08-6.4-5.18-12.42-9.24-17.79-1.15-1.52-3.47-.25-2.59 1.51 2.13 4.29 3.66 8.81 4.6 13.5l2.74-1.16c-2.5-4.7-4.51-9.62-6.03-14.72l-2.74 1.16c2.14 4.35 3.57 8.99 4.34 13.77l2.51-1.46c-3.15-2.75-3.69-7.58-4.63-11.42L240.77 63c-.46-1.88-3.29-1.08-2.89.8.95 4.44 1.89 8.87 2.84 13.31.35 1.63 3.09 1.3 2.95-.4l-1.17-13.76-2.95.4c.95 3.18.77 6.41-.46 9.48h2.89c-.53-3.3-1.06-6.6-1.59-9.91l-2.89.8c1.07 4.47 2.15 8.94 3.22 13.41l2.74-1.16c-1.5-3.4-2.26-7.06-2.31-10.77-.02-1.62-2.65-2.12-2.95-.4-.43 2.48-.06 4.88 1.21 7.07.87 1.49 3.14.49 2.74-1.16-.25-1.02-.49-2.03-.74-3.05-.11-.47-.23-.94-.34-1.41-.06-.23-.11-.47-.17-.7-.04-.67-.53-.94-1.46-.8.56 1.84 3.46 1.06 2.89-.8zM286.88 87.14c1.56 1.3 2.82 2.88 3.61 4.76l2.2-1.69a10.127 10.127 0 01-3.46-4.48l-2.51 1.46c2.2 2.81 4.4 5.62 6.6 8.44.96 1.23 2.89-.11 2.51-1.46-1.15-4.06-3.35-7.7-6.44-10.58-1-.93-3.1-.02-2.51 1.46 1.86 4.63 4.1 9.08 6.76 13.3l2.36-1.82c-3.08-3.23-5.9-6.68-8.44-10.35-1.08-1.57-3.63-.14-2.59 1.51 2.6 4.17 5.34 8.25 8.19 12.25 1.1 1.54 3.63.15 2.59-1.51-2.31-3.69-4.62-7.39-6.93-11.08-1.03-1.65-3.44-.21-2.59 1.51 2.57 5.24 5.82 10.1 9.64 14.51 1.1 1.27 3.38-.44 2.36-1.82a18.25 18.25 0 01-3.35-7.74l-2.89.8c2.41 5.96 4.55 12.02 6.42 18.16.49 1.6 2.95 1.33 2.95-.4 0-2.76-.34-5.51-1-8.19-.4-1.61-3.07-1.31-2.95.4.41 5.63.18 11.27-.77 16.84l2.95.4a67.77 67.77 0 010-15.2h-3c.28 5.31-.81 10.55-3.26 15.28l2.8.76c-.26-4.38-.07-8.77.63-13.11l-2.95-.4c.14 5.35-.87 10.67-3.05 15.56l2.8.76c.36-3.86.71-7.73 1.07-11.59h-3c-.08 4.21-.59 8.36-1.53 12.47-.38 1.68 1.8 2.58 2.74 1.16 1.28-1.93 2.26-4.01 2.97-6.21.6-1.85-2.28-2.62-2.89-.8-.94 2.81-2.18 5.47-3.7 8.02l2.74 1.16c1.24-3.44 2.49-6.87 3.73-10.31l-2.89-.8c-.36 1.58-.73 3.15-1.09 4.73-.43 1.88 2.41 2.67 2.89.8 2.47-9.69 4.97-21.19-1.71-29.85-.73-.95-2.4-1.02-2.74.36-.95 3.81-.56 7.64 1.02 11.22.61 1.39 2.84.66 2.8-.76-.06-1.75.26-3.4 1.05-4.96l-2.8-.76c.65 8.18.44 16.39-.61 24.52-.25 1.91 2.75 1.89 3 0 1.05-8.13 1.26-16.35.61-24.52-.11-1.36-2.07-2.2-2.8-.76-1.02 2.03-1.54 4.2-1.46 6.48l2.8-.76c-1.24-2.81-1.45-5.94-.71-8.91l-2.74.36c6.19 8.02 3.69 18.57 1.41 27.53l2.89.8c.36-1.58.73-3.15 1.09-4.73.44-1.9-2.24-2.6-2.89-.8-1.24 3.44-2.49 6.87-3.73 10.31-.59 1.63 1.89 2.58 2.74 1.16a45.16 45.16 0 004.01-8.74l-2.89-.8c-.63 1.96-1.53 3.77-2.67 5.49l2.74 1.16c1-4.35 1.55-8.8 1.63-13.26.04-1.96-2.83-1.89-3 0-.36 3.86-.71 7.73-1.07 11.59-.13 1.44 2.2 2.1 2.8.76 2.41-5.39 3.62-11.17 3.46-17.08-.04-1.61-2.66-2.13-2.95-.4-.75 4.61-1.02 9.25-.74 13.9.08 1.39 2.07 2.16 2.8.76 2.69-5.18 3.98-10.96 3.67-16.79-.11-1.97-2.79-1.89-3 0-.57 5.06-.58 10.14 0 15.2.17 1.52 2.64 2.22 2.95.4 1-5.83 1.31-11.73.88-17.63l-2.95.4c.6 2.43.89 4.88.9 7.39l2.95-.4c-1.87-6.15-4.02-12.2-6.42-18.16-.72-1.78-3.24-1.13-2.89.8.55 3.07 1.79 5.96 3.65 8.46l2.36-1.82c-3.65-4.22-6.71-8.89-9.17-13.9l-2.59 1.51c2.31 3.69 4.62 7.39 6.93 11.08l2.59-1.51c-2.86-4-5.59-8.08-8.19-12.25l-2.59 1.51c2.69 3.88 5.66 7.54 8.91 10.96 1.16 1.22 3.27-.36 2.36-1.82-2.52-4-4.69-8.2-6.45-12.59l-2.51 1.46c2.72 2.54 4.65 5.68 5.66 9.26l2.51-1.46c-2.2-2.81-4.4-5.62-6.6-8.44-.91-1.16-3.04.1-2.51 1.46 1 2.58 2.6 4.65 4.84 6.28 1.01.73 2.7-.5 2.2-1.69-.99-2.37-2.4-4.43-4.38-6.09-1.47-1.23-3.6.88-2.12 2.12z"></path></svg>